<?xml version="1.0" encoding="UTF-8"?>
<svg width="20px" height="20px" viewBox="0 0 24 24" version="1.1" xmlns="http://www.w3.org/2000/svg" xmlns:xlink="http://www.w3.org/1999/xlink">
    <g id="Page-1" stroke="none" stroke-width="1" fill="none" fill-rule="evenodd">
        <g id="Mainer-Page" transform="translate(-709.000000, -60.000000)" fill="#ff9f89">
            <path d="M709,72 C709,65.3725827 714.372583,60 721,60 C727.627417,60 733,65.3725827 733,72 C733,78.6274173 727.627417,84 721,84 C714.372583,84 709,78.6274173 709,72 Z M727.792999,69.6810033 C727.728901,71.0826751 726.750006,73.0016087 724.856147,75.4378042 C722.898356,77.9816035 721.24179,79.2540843 719.887278,79.2540843 C719.047537,79.2540843 718.337319,78.479769 717.756956,76.929976 C717.369549,75.509374 716.982474,74.088938 716.594902,72.6683359 C716.163822,71.1193733 715.701857,70.3440616 715.207345,70.3440616 C715.099575,70.3440616 714.722629,70.5707269 714.077173,71.0220649 L713.4,70.149611 C714.110716,69.5254096 714.811635,68.9010421 715.501262,68.2758444 C716.449105,67.4571924 717.16115,67.0262792 717.635403,66.9829388 C718.755612,66.875169 719.445405,67.6410155 719.704285,69.2804782 C719.984088,71.0496301 720.177874,72.1497456 720.286474,72.5803267 C720.60995,74.0480884 720.965474,74.781222 721.353545,74.781222 C721.654603,74.781222 722.107601,74.3053079 722.711378,73.3528154 C723.313992,72.4009871 723.637136,71.6766544 723.680642,71.178821 C723.766825,70.357346 723.443681,69.9455292 722.711378,69.9455292 C722.366647,69.9455292 722.011123,70.0249036 721.64547,70.1816597 C722.353363,67.8640276 723.705384,66.7383395 725.701035,66.8026029 C727.180587,66.8459433 727.878517,67.8054101 727.792999,69.6810033 Z" id="svg---Vimeo"></path>
        </g>
    </g>
</svg>