<?xml version="1.0" standalone="no"?>
<!DOCTYPE svg PUBLIC "-//W3C//DTD SVG 20010904//EN"
 "http://www.w3.org/TR/2001/REC-SVG-20010904/DTD/svg10.dtd">
<svg version="1.0" xmlns="http://www.w3.org/2000/svg"
 width="123.000000pt" height="123.000000pt" viewBox="0 0 123.000000 123.000000"
 preserveAspectRatio="xMidYMid meet">
<metadata>
Created by potrace 1.11, written by Peter Selinger 2001-2013
</metadata>
<g transform="translate(0.000000,123.000000) scale(0.100000,-0.100000)"
fill="#000000" stroke="none">
<path d="M480 989 l0 -231 -24 16 c-14 8 -40 24 -58 34 -18 11 -84 49 -147 86
-62 36 -118 66 -122 66 -5 0 -9 5 -9 10 0 6 -4 10 -10 10 -5 0 -32 13 -60 30
l-50 29 0 -420 0 -421 33 20 c104 64 432 252 439 252 4 0 8 -102 8 -226 l0
-225 47 38 c26 21 57 45 68 54 11 9 58 47 105 84 47 38 91 73 97 79 10 9 5 27
-22 81 -48 98 -69 198 -62 300 6 86 40 200 78 262 26 41 44 20 -158 182 l-153
122 0 -232z"/>
<path d="M813 893 c-52 -93 -67 -153 -68 -268 0 -136 25 -222 91 -313 2 -3
100 70 159 120 11 9 68 55 128 102 l107 85 -194 156 c-106 85 -195 155 -198
155 -2 0 -14 -17 -25 -37z m172 -175 c15 -14 28 -38 31 -59 8 -47 -25 -87 -78
-96 -32 -5 -41 -1 -68 25 -40 41 -41 83 -1 123 36 36 79 38 116 7z"/>
<path d="M890 690 c-38 -38 -12 -100 42 -100 24 0 58 35 58 60 0 11 -9 29 -20
40 -11 11 -29 20 -40 20 -11 0 -29 -9 -40 -20z"/>
</g>
</svg>
