<?xml version="1.0" encoding="UTF-8"?>
<svg width="24px" height="24px" viewBox="0 0 28 28" version="1.1" xmlns="http://www.w3.org/2000/svg" xmlns:xlink="http://www.w3.org/1999/xlink">
    <g id="Page-1" stroke="none" stroke-width="1" fill="transparent" fill-rule="evenodd">
        <g id="Main" transform="translate(-906.000000, -884.000000)" fill="#909090">
            <g id="Footer" transform="translate(0.000000, 718.000000)">
                <g id="Group-2" transform="translate(906.000000, 166.000000)">
                    <g id="svg---Facebook">
                        <path d="M0,14 C0,6.26801312 6.26801312,0 14,0 C21.7319869,0 28,6.26801312 28,14 C28,21.7319869 21.7319869,28 14,28 C6.26801312,28 0,21.7319869 0,14 Z M14.9925738,21.7650281 L14.9925738,14.1482889 L17.0951269,14.1482889 L17.3737606,11.5235185 L14.9925738,11.5235185 L14.996146,10.2097956 C14.996146,9.52521498 15.0611903,9.15840108 16.0444457,9.15840108 L17.3588763,9.15840108 L17.3588763,6.53333333 L15.2560255,6.53333333 C12.7301635,6.53333333 11.8411256,7.80662941 11.8411256,9.94791302 L11.8411256,11.5238157 L10.2666667,11.5238157 L10.2666667,14.1485862 L11.8411256,14.1485862 L11.8411256,21.7650281 L14.9925738,21.7650281 Z" id="Combined-Shape"></path>
                    </g>
                </g>
            </g>
        </g>
    </g>
</svg>