<?xml version="1.0" encoding="UTF-8"?>
<svg width="24px" height="24px" viewBox="0 0 28 28" version="1.1" xmlns="http://www.w3.org/2000/svg" xmlns:xlink="http://www.w3.org/1999/xlink">
    <g id="Page-1" stroke="none" stroke-width="1" fill="none" fill-rule="evenodd">
        <g id="Main" transform="translate(-992.000000, -885.000000)">
            <g id="Footer" transform="translate(0.000000, 718.000000)">
                <g id="Group-2" transform="translate(906.000000, 166.000000)">
                    <g id="svg---Instagram" transform="translate(86.000000, 1.000000)">
                        <path d="M0,14 C0,6.26801312 6.26801312,0 14,0 C21.7319869,0 28,6.26801312 28,14 C28,21.7319869 21.7319869,28 14,28 C6.26801312,28 0,21.7319869 0,14 Z" id="Combined-Shape" fill="#909090"></path>
                        <path d="M13.997396,6.5300293 C11.9695526,6.5300293 11.7150611,6.53889606 10.9186083,6.57514088 C10.1237112,6.61154126 9.58112775,6.73738701 9.10636724,6.92203338 C8.61527324,7.11274648 8.19869112,7.36786025 7.78366458,7.78304235 C7.36832692,8.19806889 7.11321315,8.61465101 6.92187782,9.10558946 C6.73676478,9.58050552 6.61076347,10.1232445 6.57498532,10.9178306 C6.53936273,11.7142833 6.5300293,11.9689304 6.5300293,13.9967737 C6.5300293,16.0246171 6.53905161,16.2783308 6.57514088,17.0747836 C6.61169681,17.8696808 6.73754257,18.4122642 6.92203338,18.8870247 C7.11290204,19.3781187 7.3680158,19.7947008 7.78319791,20.2097273 C8.19806889,20.625065 8.61465101,20.880801 9.1054339,21.0715141 C9.58050552,21.2561605 10.1232445,21.3820062 10.9179861,21.4184066 C11.7144389,21.4546514 11.9687748,21.4635182 13.9964626,21.4635182 C16.0244615,21.4635182 16.2781753,21.4546514 17.074628,21.4184066 C17.8695252,21.3820062 18.4127309,21.2561605 18.8878025,21.0715141 C19.3787409,20.880801 19.7947008,20.625065 20.2095718,20.2097273 C20.6249095,19.7947008 20.8800232,19.3781187 21.0713585,18.8871802 C21.254916,18.4122642 21.3809173,17.8695252 21.418251,17.0749391 C21.4540292,16.2784864 21.4633626,16.0246171 21.4633626,13.9967737 C21.4633626,11.9689304 21.4540292,11.7144389 21.418251,10.9179861 C21.3809173,10.1230889 21.254916,9.58050552 21.0713585,9.10574502 C20.8800232,8.61465101 20.6249095,8.19806889 20.2095718,7.78304235 C19.7942341,7.36770469 19.3788965,7.11259092 18.8873358,6.92203338 C18.4113308,6.73738701 17.8684363,6.61154126 17.0735391,6.57514088 C16.2770864,6.53889606 16.0235282,6.5300293 13.9950626,6.5300293 L13.997396,6.5300293 Z M13.3275668,7.87559887 C13.5263688,7.87528775 13.7481934,7.87559887 13.997396,7.87559887 C15.9910167,7.87559887 16.2273081,7.8827545 17.014583,7.91853265 C17.7425905,7.95182188 18.1377058,8.0734676 18.4009085,8.17566866 C18.7493566,8.3110034 18.9977814,8.47278287 19.2589619,8.73411892 C19.5202979,8.99545498 19.6820774,9.24434646 19.8177233,9.59279453 C19.9199243,9.85568616 20.0417256,10.2508014 20.0748593,10.978809 C20.1106374,11.7659283 20.1184153,12.0023752 20.1184153,13.9950626 C20.1184153,15.98775 20.1106374,16.2241969 20.0748593,17.0113163 C20.04157,17.7393238 19.9199243,18.1344391 19.8177233,18.3973307 C19.6823885,18.7457788 19.5202979,18.9938925 19.2589619,19.255073 C18.9976258,19.516409 18.7495121,19.6781885 18.4009085,19.8135232 C18.1380169,19.916191 17.7425905,20.0375256 17.014583,20.0708148 C16.2274636,20.1065929 15.9910167,20.1143708 13.997396,20.1143708 C12.0036196,20.1143708 11.7673283,20.1065929 10.980209,20.0708148 C10.2522014,20.0372144 9.85708618,19.9155687 9.59372788,19.8133677 C9.2452798,19.6780329 8.99638832,19.5162535 8.73505227,19.2549174 C8.47371621,18.9935813 8.31193675,18.7453121 8.17629089,18.3967085 C8.07408983,18.1338168 7.95228856,17.7387016 7.91915488,17.010694 C7.88337673,16.2235747 7.8762211,15.9871278 7.8762211,13.9931959 C7.8762211,11.999264 7.88337673,11.7640616 7.91915488,10.9769423 C7.95244411,10.2489347 8.07408983,9.85381948 8.17629089,9.59061673 C8.31162563,9.24216866 8.47371621,8.99327718 8.73505227,8.73194112 C8.99638832,8.47060507 9.2452798,8.3088256 9.59372788,8.17317975 C9.85693062,8.07051201 10.2522014,7.94917741 10.980209,7.91573262 C11.6690162,7.88462118 11.9359523,7.87528775 13.3275668,7.87373218 L13.3275668,7.87559887 Z M17.9830819,9.11538956 C17.4884101,9.11538956 17.0870726,9.5162604 17.0870726,10.0110878 C17.0870726,10.5057596 17.4884101,10.9070971 17.9830819,10.9070971 C18.4777538,10.9070971 18.8790913,10.5057596 18.8790913,10.0110878 C18.8790913,9.51641596 18.4777538,9.11507845 17.9830819,9.11507845 L17.9830819,9.11538956 Z M13.997396,10.1622894 C11.8797961,10.1622894 10.1629116,11.8791739 10.1629116,13.9967737 C10.1629116,16.1143736 11.8797961,17.8304803 13.997396,17.8304803 C16.1149958,17.8304803 17.8312581,16.1143736 17.8312581,13.9967737 C17.8312581,11.8791739 16.1148402,10.1622894 13.9972404,10.1622894 L13.997396,10.1622894 Z M13.997396,11.5078589 C15.3718992,11.5078589 16.4863108,12.622115 16.4863108,13.9967737 C16.4863108,15.3712769 15.3718992,16.4856886 13.997396,16.4856886 C12.6227372,16.4856886 11.5084812,15.3712769 11.5084812,13.9967737 C11.5084812,12.622115 12.6227372,11.5078589 13.997396,11.5078589 L13.997396,11.5078589 Z" id="Shape" fill="#FFFFFF"></path>
                    </g>
                </g>
            </g>
        </g>
    </g>
</svg>