<?xml version="1.0" encoding="UTF-8"?>
<svg width="24px" height="24px" viewBox="0 0 28 28" version="1.1" xmlns="http://www.w3.org/2000/svg" xmlns:xlink="http://www.w3.org/1999/xlink">
    <g id="Page-1" stroke="none" stroke-width="1" fill="none" fill-rule="evenodd">
        <g id="Main" transform="translate(-949.000000, -885.000000)" fill="#909090">
            <g id="Footer" transform="translate(0.000000, 718.000000)">
                <g id="Group-2" transform="translate(906.000000, 166.000000)">
                    <g id="svg---VK" transform="translate(43.000000, 1.000000)">
                        <path d="M0,14 C0,6.26801312 6.26801312,0 14,0 C21.7319869,0 28,6.26801312 28,14 C28,21.7319869 21.7319869,28 14,28 C6.26801312,28 0,21.7319869 0,14 Z M14.7323531,18.1277134 C14.7323531,18.1277134 15.0018669,18.0983185 15.1399106,17.952778 C15.2662681,17.8194257 15.2618857,17.5677768 15.2618857,17.5677768 C15.2618857,17.5677768 15.2450868,16.3926987 15.8009135,16.2191973 C16.3487059,16.0485636 17.0520714,17.3555602 17.7985298,17.8581409 C18.3623908,18.2381234 18.7903993,18.1549574 18.7903993,18.1549574 L20.7850941,18.1277134 C20.7850941,18.1277134 21.8280909,18.0646219 21.3336169,17.2594891 C21.2927151,17.1935299 21.0451129,16.6637051 19.8509254,15.5753778 C18.5997676,14.4361471 18.7677572,14.6204027 20.2738212,12.6495121 C21.1911909,11.4493408 21.5578466,10.7166197 21.4431754,10.4033134 C21.3343473,10.103629 20.6594671,10.1832103 20.6594671,10.1832103 L18.4142485,10.1968323 C18.4142485,10.1968323 18.2477196,10.1746069 18.1242837,10.2470187 C18.0037694,10.3179965 17.9256177,10.4836116 17.9256177,10.4836116 C17.9256177,10.4836116 17.5706482,11.4120595 17.0966252,12.2021364 C16.0967214,13.8683241 15.6971981,13.9565087 15.5335908,13.8532682 C15.1530577,13.6116566 15.2480083,12.8839542 15.2480083,12.3670345 C15.2480083,10.7517502 15.4978017,10.0785358 14.7622991,9.90431742 C14.5183488,9.84624462 14.3386729,9.80824636 13.7141896,9.80179383 C12.9129519,9.7939074 12.23515,9.80466162 11.850965,9.98891731 C11.5953285,10.1115155 11.3981232,10.3853897 11.5186376,10.4011625 C11.6669067,10.4205201 12.0028861,10.4900641 12.1811012,10.7280909 C12.411174,11.0356617 12.4031397,11.7253659 12.4031397,11.7253659 C12.4031397,11.7253659 12.5353403,13.6267125 12.0941848,13.8625885 C11.7918034,14.0246188 11.3769419,13.6941057 10.4851359,12.1820619 C10.0286422,11.4077578 9.68389814,10.5517217 9.68389814,10.5517217 C9.68389814,10.5517217 9.61743266,10.3918422 9.49837911,10.3058084 C9.3544923,10.2018509 9.15363508,10.1695883 9.15363508,10.1695883 L7.02016621,10.1832103 C7.02016621,10.1832103 6.69952504,10.1918137 6.58193227,10.3287508 C6.47748652,10.449915 6.57389798,10.7015638 6.57389798,10.7015638 C6.57389798,10.7015638 8.24429967,14.5379537 10.1360095,16.471563 C11.8706855,18.243859 13.8398166,18.1277134 13.8398166,18.1277134 L14.7323531,18.1277134 Z" id="Combined-Shape"></path>
                    </g>
                </g>
            </g>
        </g>
    </g>
</svg>